<?xml version="1.0" standalone="no"?>
<!DOCTYPE svg PUBLIC "-//W3C//DTD SVG 20010904//EN"
 "http://www.w3.org/TR/2001/REC-SVG-20010904/DTD/svg10.dtd">
<svg version="1.0" xmlns="http://www.w3.org/2000/svg"
 width="512.000000pt" height="512.000000pt" viewBox="0 0 512.000000 512.000000"
 preserveAspectRatio="xMidYMid meet">
<g transform="translate(0.000000,512.000000) scale(0.100000,-0.100000)"
fill="#000000" stroke="none">
<path d="M2320 5114 c-91 -9 -296 -45 -391 -69 -905 -230 -1624 -949 -1854
-1854 -57 -228 -69 -335 -69 -631 0 -296 12 -403 69 -631 230 -905 949 -1624
1854 -1854 228 -57 335 -69 631 -69 296 0 403 12 631 69 905 230 1624 949
1854 1854 57 228 69 335 69 631 0 296 -12 403 -69 631 -230 905 -949 1624
-1854 1854 -205 52 -330 67 -586 70 -132 1 -260 1 -285 -1z m-162 -1277 c-2
-7 -75 -119 -162 -250 l-160 -237 -164 0 c-90 0 -161 3 -159 8 2 4 55 116 117
250 l113 242 209 0 c166 0 209 -3 206 -13z m1584 -145 c130 -35 223 -87 309
-172 116 -114 159 -224 159 -400 0 -171 -43 -281 -155 -395 -38 -40 -115 -102
-170 -138 -181 -118 -244 -209 -253 -368 l-5 -89 -209 0 -210 0 7 108 c18 283
80 404 275 535 94 64 196 160 223 212 30 58 30 174 0 231 -45 84 -131 133
-234 134 -148 0 -254 -79 -281 -211 l-12 -59 -218 0 -218 0 0 48 c0 27 9 84
20 126 60 236 233 389 505 450 102 23 362 16 467 -12z m-2370 -1099 c3 -487 5
-552 20 -583 31 -66 75 -115 129 -145 48 -26 63 -30 139 -29 73 0 93 4 137 27
75 39 118 81 150 145 l28 57 3 538 3 537 229 0 230 0 0 -840 0 -840 -220 0
-220 0 0 155 c0 85 -4 155 -8 155 -4 0 -20 -24 -34 -54 -83 -169 -271 -276
-488 -276 -217 0 -400 110 -490 294 -69 139 -70 148 -70 814 l0 592 230 0 229
0 3 -547z m2140 -655 c49 -15 123 -78 149 -129 101 -200 -90 -427 -308 -364
-46 13 -69 28 -108 68 -56 58 -75 105 -75 188 0 171 170 289 342 237z"/>
</g>
</svg>
