<svg xmlns="http://www.w3.org/2000/svg" width="32" height="32" viewBox="0 0 512 512">
  <style>
    path { fill: #1682ee; }
    @media (prefers-color-scheme: dark) {
      path { fill: #eecd13; }
    }
  </style>
  <path d="M256,0C114.62,0,0,114.62,0,256s114.62,256,256,256s256-114.62,256-256S397.38,0,256,0z M174.07,127.26h42.95l-33.25,49.6
	h-32.81L174.07,127.26z M244.39,365.91H199.8v-30.42h-1.74c-3.78,9.81-10.05,17.7-18.81,23.66c-8.76,5.96-19.42,8.94-32,8.94
	c-16.86,0-30.51-5.61-40.94-16.84c-10.43-11.23-15.68-26.62-15.75-46.17V198.45h46.44v98.34c0.07,9.89,2.73,17.7,7.96,23.44
	c5.23,5.74,12.25,8.61,21.04,8.61c8.36,0,15.79-2.91,22.29-8.72c6.5-5.81,9.72-14.32,9.65-25.51v-96.16h46.44V365.91z
	 M361.09,361.11c-5.2,5.09-11.28,7.63-18.26,7.63c-7.2,0-13.37-2.54-18.53-7.63c-5.16-5.09-7.7-11.26-7.63-18.53
	c-0.07-7.12,2.47-13.23,7.63-18.32c5.16-5.09,11.34-7.63,18.53-7.63c6.98,0,13.06,2.54,18.26,7.63c5.2,5.09,7.83,11.19,7.9,18.32
	C368.92,349.84,366.29,356.02,361.09,361.11z M412.22,231.92c-6.14,8.5-14.3,15.77-24.47,21.8c-8.58,5.16-14.86,10.72-18.86,16.68
	c-4,5.96-6.07,14.25-6.21,24.86v3.71h-41.32v-3.71c0.07-12.72,1.22-22.86,3.43-30.42c2.22-7.56,5.45-13.64,9.7-18.26
	c4.25-4.61,9.43-8.85,15.54-12.7c6.69-4.29,12.32-8.96,16.9-14.01c4.58-5.05,6.87-11.14,6.87-18.26c0-7.56-2.6-13.61-7.79-18.15
	c-5.2-4.54-11.47-6.81-18.81-6.81c-7.12,0-13.5,2.33-19.13,6.98c-5.63,4.65-8.63,11.41-8.99,20.28h-44.48
	c0.36-14.54,3.85-26.56,10.47-36.09c6.61-9.52,15.37-16.61,26.27-21.26c10.9-4.65,22.93-6.98,36.08-6.98
	c14.46,0,27.25,2.38,38.38,7.14c11.12,4.76,19.84,11.65,26.17,20.66c6.32,9.01,9.48,19.88,9.48,32.6
	C421.44,212.77,418.37,223.42,412.22,231.92z" />
</svg>
